<svg xmlns="http://www.w3.org/2000/svg" viewBox="0 0 64 64" fill="none">
  <path d="M32 8c-3.5 0-6.5 2-8 5-2-1-4-1-6 0-3 2-4 6-3 9l-3 3v8c0 2 1 3 3 3h34c2 0 3-1 3-3v-8l-3-3c1-3 0-7-3-9-2-1-4-1-6 0-1.5-3-4.5-5-8-5z" fill="#FF6B35" stroke="#333" stroke-width="2"/>
  <rect x="12" y="33" width="40" height="20" rx="2" fill="#FFF" stroke="#333" stroke-width="2"/>
  <line x1="20" y1="38" x2="20" y2="48" stroke="#DDD" stroke-width="1.5"/>
  <line x1="28" y1="38" x2="28" y2="48" stroke="#DDD" stroke-width="1.5"/>
  <line x1="36" y1="38" x2="36" y2="48" stroke="#DDD" stroke-width="1.5"/>
  <line x1="44" y1="38" x2="44" y2="48" stroke="#DDD" stroke-width="1.5"/>
</svg>
